<?xml version="1.0" encoding="utf-8"?>
<!-- Generator: Adobe Illustrator 25.3.1, SVG Export Plug-In . SVG Version: 6.00 Build 0)  -->
<svg version="1.1" xmlns="http://www.w3.org/2000/svg" xmlns:xlink="http://www.w3.org/1999/xlink" x="0px" y="0px"
	 viewBox="0 0 1500 1500" style="enable-background:new 0 0 1500 1500;" xml:space="preserve">
<style type="text/css">
	.st0{display:none;}
	.st1{display:inline;}
	.st2{fill:none;stroke:#221F1F;stroke-width:79.1023;stroke-linejoin:round;stroke-miterlimit:10;}
	.st3{fill:none;stroke:#221F1F;stroke-width:78.539;stroke-linecap:round;stroke-linejoin:round;stroke-miterlimit:10;}
	.st4{fill:none;stroke:#221F1F;stroke-width:78.539;stroke-linejoin:round;stroke-miterlimit:10;}
	.st5{fill:none;stroke:#221F1F;stroke-width:99.9587;stroke-linecap:round;stroke-linejoin:round;stroke-miterlimit:10;}
	.st6{fill:none;stroke:#221F1F;stroke-width:54.642;stroke-linecap:round;stroke-linejoin:round;stroke-miterlimit:10;}
	.st7{fill:none;stroke:#221F1F;stroke-width:2.141;stroke-linecap:round;stroke-linejoin:round;stroke-miterlimit:10;}
</style>
<g id="Layer_1" class="st0">
	<g class="st1">
		<rect x="44.71" y="234" class="st2" width="1407.26" height="1031.99"/>
		<polyline class="st2" points="44.71,234 767.05,898.64 1451.97,234 		"/>
		<line class="st2" x1="44.71" y1="1266" x2="580.08" y2="701.05"/>
		<line class="st2" x1="1455.29" y1="1255.54" x2="947.2" y2="701.05"/>
	</g>
</g>
<g id="Layer_2">
	<g>
		<polyline class="st3" points="1454.16,1060.31 1454.16,1403.94 45.84,1403.94 45.84,754.25 		"/>
		<polyline class="st3" points="45.84,594.11 45.84,193.57 1454.16,193.57 1454.16,906.62 		"/>
		<rect x="237.58" y="445.92" class="st4" width="236" height="144.67"/>
		<rect x="642.5" y="445.92" class="st4" width="236" height="144.67"/>
		<rect x="1039.04" y="445.92" class="st4" width="236" height="144.67"/>
		<rect x="237.58" y="755.94" class="st4" width="236" height="144.67"/>
		<rect x="642.5" y="755.94" class="st4" width="236" height="144.67"/>
		<rect x="1039.04" y="755.94" class="st4" width="236" height="144.67"/>
		<rect x="237.58" y="1065.96" class="st4" width="236" height="144.67"/>
		<rect x="642.5" y="1065.96" class="st4" width="236" height="144.67"/>
		<rect x="1039.04" y="1065.96" class="st4" width="236" height="144.67"/>
		<line class="st5" x1="356.11" y1="293.84" x2="356.11" y2="96.06"/>
		<line class="st5" x1="767.38" y1="293.84" x2="767.38" y2="96.06"/>
		<line class="st5" x1="1157.23" y1="293.84" x2="1157.23" y2="96.06"/>
	</g>
</g>
<g id="Layer_3" class="st0">
	<g class="st1">
		<path class="st6" d="M362.72,916.82c0,0,450.41-669.35,1096.75-730.75c0,0-217.33,571.64-1016.7,838.22L362.72,916.82z"/>
		<path class="st6" d="M542.58,998.7c0,0,55.34,116.67-270.79,315.23c0,0,727.37-319.32,679.19-456.22c0,0-15.81-54.23-122.55-7.15"
			/>
		<path class="st6" d="M371.81,890.62c0,0,26.48-178.49-331.27,151.07c0,0,440.93-609.87,557.39-528.11
			c0,0,57.86,38.78-12.25,134.51"/>
		
			<ellipse transform="matrix(0.805 -0.5932 0.5932 0.805 -27.5149 755.8818)" class="st6" cx="1136.25" cy="419.8" rx="64.96" ry="50.6"/>
		
			<ellipse transform="matrix(0.805 -0.5932 0.5932 0.805 -137.0582 678.2224)" class="st6" cx="963.33" cy="547.63" rx="64.96" ry="50.6"/>
		
			<ellipse transform="matrix(0.805 -0.5932 0.5932 0.805 -248.8034 599.4982)" class="st6" cx="787.68" cy="678.28" rx="64.96" ry="50.6"/>
	</g>
</g>
<g id="Layer_4" class="st0">
	<g class="st1">
		<path class="st7" d="M963.67,1332.85h-5.24v-14.74c0-2.65,2.15-4.81,4.81-4.81l0,0c2.65,0,4.81,2.15,4.81,4.81v10.37
			C968.04,1330.89,966.08,1332.85,963.67,1332.85z"/>
		<path class="st7" d="M968.04,1332.85h5c2.74,0,4.97-2.22,4.97-4.97l0,0c0-2.74-2.22-4.97-4.97-4.97h-0.04
			c-2.74,0-4.97,2.22-4.97,4.97V1332.85z"/>
		<path class="st7" d="M948.74,1333.41v5c0,2.74-2.22,4.97-4.97,4.97l0,0c-2.74,0-4.97-2.22-4.97-4.97v-0.04
			c0-2.74,2.22-4.97,4.97-4.97H948.74z"/>
		<path class="st7" d="M958.55,1342.54v4.86c0,2.68,2.18,4.86,4.86,4.86h0.21c2.68,0,4.86-2.18,4.86-4.86l0,0
			c0-2.68-2.18-4.86-4.86-4.86H958.55z"/>
		<path class="st7" d="M958.2,1323.19h-4.86c-2.68,0-4.86-2.18-4.86-4.86v-0.21c0-2.68,2.18-4.86,4.86-4.86l0,0
			c2.68,0,4.86,2.18,4.86,4.86V1323.19z"/>
		<path class="st7" d="M953.17,1332.85h5.24v14.74c0,2.65-2.15,4.81-4.81,4.81l0,0c-2.65,0-4.81-2.15-4.81-4.81v-10.37
			C948.79,1334.81,950.75,1332.85,953.17,1332.85z"/>
		<path class="st7" d="M958.28,1327.63v5.24h-14.74c-2.65,0-4.81-2.15-4.81-4.81v0c0-2.65,2.15-4.81,4.81-4.81h10.37
			C956.33,1323.26,958.28,1325.21,958.28,1327.63z"/>
		<path class="st7" d="M958.74,1338.14v-5.24h14.74c2.65,0,4.81,2.15,4.81,4.81l0,0c0,2.65-2.15,4.81-4.81,4.81h-10.37
			C960.7,1342.52,958.74,1340.56,958.74,1338.14z"/>
	</g>
</g>
</svg>
