<?xml version="1.0" encoding="utf-8"?>
<!-- Generator: Adobe Illustrator 25.3.1, SVG Export Plug-In . SVG Version: 6.00 Build 0)  -->
<svg version="1.1" xmlns="http://www.w3.org/2000/svg" xmlns:xlink="http://www.w3.org/1999/xlink" x="0px" y="0px"
	 viewBox="0 0 50 50" style="enable-background:new 0 0 50 50;" xml:space="preserve">
<style type="text/css">
	.st0{display:none;}
	.st1{display:inline;}
	.st2{fill:none;stroke:#231F20;stroke-width:1.8476;stroke-linecap:round;stroke-linejoin:round;stroke-miterlimit:10;}
	.st3{fill:none;stroke:#231F20;stroke-width:2.141;stroke-linecap:round;stroke-linejoin:round;stroke-miterlimit:10;}
	.st4{fill:none;stroke:#231F20;stroke-width:2.1966;stroke-linecap:round;stroke-linejoin:round;stroke-miterlimit:10;}
	.st5{fill:none;stroke:#231F20;stroke-width:2.1966;stroke-linejoin:round;stroke-miterlimit:10;}
	.st6{fill:none;stroke:#231F20;stroke-width:2.7956;stroke-linecap:round;stroke-linejoin:round;stroke-miterlimit:10;}
	.st7{fill:none;stroke:#231F20;stroke-width:2.2994;stroke-linejoin:round;stroke-miterlimit:10;}
</style>
<g id="GUIDES" class="st0">
</g>
<g id="ROCKET" class="st0">
	<g class="st1">
		<path class="st2" d="M15,34.9c0,0,8.8-25.8,29.4-33.5c0,0-2.1,20.6-25.8,36.3L15,34.9z"/>
		<path class="st2" d="M21.6,36c0,0,2.8,3.3-6.1,12.7c0,0,20.9-16.8,18.2-20.9c0,0-1-1.6-4.1,0.8"/>
		<path class="st2" d="M15.1,33.9c0,0-0.7-6.1-9.5,7.8c0,0,9-23.8,13.6-22.1c0,0,2.2,0.8,0.8,4.5"/>
		<ellipse transform="matrix(0.623 -0.7822 0.7822 0.623 4.2749 32.548)" class="st2" cx="35.9" cy="11.8" rx="2.2" ry="1.7"/>
		<ellipse transform="matrix(0.623 -0.7822 0.7822 0.623 -1.8841 31.1585)" class="st2" cx="31.4" cy="17.5" rx="2.2" ry="1.7"/>
		<ellipse transform="matrix(0.623 -0.7822 0.7822 0.623 -8.1579 29.7626)" class="st2" cx="26.8" cy="23.3" rx="2.2" ry="1.7"/>
	</g>
</g>
<g id="SLACK">
	<g>
		<path class="st3" d="M30.2,25h-5.2V10.3c0-2.7,2.2-4.8,4.8-4.8h0c2.7,0,4.8,2.2,4.8,4.8v10.4C34.5,23.1,32.6,25,30.2,25z"/>
		<path class="st3" d="M34.5,25h5c2.7,0,5-2.2,5-5v0c0-2.7-2.2-5-5-5h0c-2.7,0-5,2.2-5,5V25z"/>
		<path class="st3" d="M15.2,25.6v5c0,2.7-2.2,5-5,5h0c-2.7,0-5-2.2-5-5v0c0-2.7,2.2-5,5-5H15.2z"/>
		<path class="st3" d="M25,34.7v4.9c0,2.7,2.2,4.9,4.9,4.9h0.2c2.7,0,4.9-2.2,4.9-4.9v0c0-2.7-2.2-4.9-4.9-4.9H25z"/>
		<path class="st3" d="M24.7,15.4l-4.9,0c-2.7,0-4.9-2.2-4.9-4.9v-0.2c0-2.7,2.2-4.9,4.9-4.9h0c2.7,0,4.9,2.2,4.9,4.9V15.4z"/>
		<path class="st3" d="M19.7,25h5.2v14.7c0,2.7-2.2,4.8-4.8,4.8h0c-2.7,0-4.8-2.2-4.8-4.8V29.4C15.3,27,17.2,25,19.7,25z"/>
		<path class="st3" d="M24.8,19.8V25H10c-2.7,0-4.8-2.2-4.8-4.8v0c0-2.7,2.2-4.8,4.8-4.8h10.4C22.8,15.4,24.8,17.4,24.8,19.8z"/>
		<path class="st3" d="M25.2,30.3v-5.2H40c2.7,0,4.8,2.2,4.8,4.8v0c0,2.7-2.2,4.8-4.8,4.8H29.6C27.2,34.7,25.2,32.7,25.2,30.3z"/>
	</g>
</g>
<g id="CALENDAR" class="st0">
	<g class="st1">
		<polyline class="st4" points="44.7,33.7 44.7,43.3 5.3,43.3 5.3,25.1 		"/>
		<polyline class="st4" points="5.3,20.6 5.3,9.4 44.7,9.4 44.7,29.4 		"/>
		<rect x="10.7" y="16.5" class="st5" width="6.6" height="4"/>
		<rect x="22" y="16.5" class="st5" width="6.6" height="4"/>
		<rect x="33.1" y="16.5" class="st5" width="6.6" height="4"/>
		<rect x="10.7" y="25.2" class="st5" width="6.6" height="4"/>
		<rect x="22" y="25.2" class="st5" width="6.6" height="4"/>
		<rect x="33.1" y="25.2" class="st5" width="6.6" height="4"/>
		<rect x="10.7" y="33.8" class="st5" width="6.6" height="4"/>
		<rect x="22" y="33.8" class="st5" width="6.6" height="4"/>
		<rect x="33.1" y="33.8" class="st5" width="6.6" height="4"/>
		<line class="st6" x1="14" y1="12.2" x2="14" y2="6.7"/>
		<line class="st6" x1="25.5" y1="12.2" x2="25.5" y2="6.7"/>
		<line class="st6" x1="36.4" y1="12.2" x2="36.4" y2="6.7"/>
	</g>
</g>
<g id="MAIL" class="st0">
	<g class="st1">
		<rect x="4.5" y="10" class="st7" width="40.9" height="30"/>
		<polyline class="st7" points="4.5,10 25.5,29.3 45.4,10 		"/>
		<line class="st7" x1="4.5" y1="40" x2="20.1" y2="23.6"/>
		<line class="st7" x1="45.5" y1="39.7" x2="30.7" y2="23.6"/>
	</g>
</g>
</svg>
